<svg width="32" height="32" viewBox="0 0 32 32" fill="none" xmlns="http://www.w3.org/2000/svg">
<path fill-rule="evenodd" clip-rule="evenodd" d="M1.04004 16.0418V29.6283H24.3617V19.8158H7.20044V16.6077V13.3057L1.04004 16.0418Z" stroke="#FEFEFE" stroke-miterlimit="22.9256"/>
<path d="M7.20032 19.8159V29.4397" stroke="#FEFEFE" stroke-miterlimit="22.9256"/>
<path d="M18.9712 19.8159V29.4397" stroke="#FEFEFE" stroke-miterlimit="22.9256"/>
<path d="M24.3617 21.8916H1.04004" stroke="#FEFEFE" stroke-miterlimit="22.9256"/>
<path d="M24.3617 27.8828H1.04004" stroke="#FEFEFE" stroke-miterlimit="22.9256"/>
<path fill-rule="evenodd" clip-rule="evenodd" d="M9.09521 7.48651V16.3555H26.3665V21.9222H30.6568V7.20343H26.1465V9.09047H14.0456V5.31641L9.09521 7.48651Z" stroke="#FEFEFE" stroke-miterlimit="22.9256"/>
<path d="M14.0455 9.09082V16.3559" stroke="#FEFEFE" stroke-miterlimit="22.9256"/>
<path d="M26.2565 9.09082V16.3559" stroke="#FEFEFE" stroke-miterlimit="22.9256"/>
<path d="M16.9059 0.976562H15.1458V7.7698H16.9059V0.976562Z" stroke="#FEFEFE" stroke-miterlimit="22.9256"/>
<path d="M24.6065 0.976562H22.8464V7.7698H24.6065V0.976562Z" stroke="#FEFEFE" stroke-miterlimit="22.9256"/>
<path d="M22.8463 4.37305H16.9058V7.76967H22.8463V4.37305Z" stroke="#FEFEFE" stroke-miterlimit="22.9256"/>
<path d="M30.6568 14.3271H9.06653" stroke="#FEFEFE" stroke-miterlimit="22.9256"/>
<path d="M14.0456 10.2227H9.01166" stroke="#FEFEFE" stroke-miterlimit="22.9256"/>
<path d="M31 10.2227H25.9661" stroke="#FEFEFE" stroke-miterlimit="22.9256"/>
<path fill-rule="evenodd" clip-rule="evenodd" d="M9.09518 14.7794L7.20038 13.5098V16.3402L9.09518 14.7794Z" fill="#FEFEFE"/>
<path fill-rule="evenodd" clip-rule="evenodd" d="M24.2599 20.4938L26.1547 19.2241V22.0546L24.2599 20.4938Z" fill="#FEFEFE"/>
<path d="M30.7671 7.13278L26.1508 5.07568V7.13278" stroke="white" stroke-miterlimit="22.9256"/>
<path d="M29.5899 7.20361L29.833 7.83631L29.6738 8.05083" stroke="white" stroke-miterlimit="22.9256"/>
<path d="M1 30.0845V31.0853H1.77795" stroke="white" stroke-miterlimit="22.9256"/>
<path d="M21.7617 30.0845V31.0853H22.5397" stroke="white" stroke-miterlimit="22.9256"/>
<path d="M3.62561 30.0845V31.0853H2.84766" stroke="white" stroke-miterlimit="22.9256"/>
<path d="M24.363 30.0845V31.0853H23.5851" stroke="white" stroke-miterlimit="22.9256"/>
</svg>
